<?xml version="1.0" encoding="UTF-8" standalone="no"?>
<svg
   xmlns:dc="http://purl.org/dc/elements/1.1/"
   xmlns:cc="http://creativecommons.org/ns#"
   xmlns:rdf="http://www.w3.org/1999/02/22-rdf-syntax-ns#"
   xmlns:svg="http://www.w3.org/2000/svg"
   xmlns="http://www.w3.org/2000/svg"
   xmlns:sodipodi="http://sodipodi.sourceforge.net/DTD/sodipodi-0.dtd"
   xmlns:inkscape="http://www.inkscape.org/namespaces/inkscape"
   width="183.74231mm"
   height="147.49014mm"
   viewBox="0 0 183.74231 147.49014"
   version="1.1"
   id="svg8"
   inkscape:version="1.0.1 (3bc2e813f5, 2020-09-07)"
   sodipodi:docname="application_logo.svg">
  <defs
     id="defs2" />
  <sodipodi:namedview
     id="base"
     pagecolor="#ffffff"
     bordercolor="#666666"
     borderopacity="1.0"
     inkscape:pageopacity="0.0"
     inkscape:pageshadow="2"
     inkscape:zoom="0.98994949"
     inkscape:cx="261.31105"
     inkscape:cy="289.9438"
     inkscape:document-units="mm"
     inkscape:current-layer="layer1"
     inkscape:document-rotation="0"
     showgrid="false"
     inkscape:window-width="1438"
     inkscape:window-height="1040"
     inkscape:window-x="2102"
     inkscape:window-y="0"
     inkscape:window-maximized="0" />
  <metadata
     id="metadata5">
    <rdf:RDF>
      <cc:Work
         rdf:about="">
        <dc:format>image/svg+xml</dc:format>
        <dc:type
           rdf:resource="http://purl.org/dc/dcmitype/StillImage" />
        <dc:title />
      </cc:Work>
    </rdf:RDF>
  </metadata>
  <g
     inkscape:label="Calque 1"
     inkscape:groupmode="layer"
     id="layer1"
     transform="translate(-15.535013,-60.348146)">
    <path
       style="fill:#428bca;fill-opacity:1;stroke:none;stroke-width:0.264583px;stroke-linecap:butt;stroke-linejoin:miter;stroke-opacity:1"
       d="m 40.065476,201.83928 c -0.125992,-22.30059 1.654479,-66.76381 -0.377976,-66.90178 -1.593102,-0.49718 -13.07464,12.83341 -15.166295,11.9535 -4.960354,-1.12852 -8.688643,-8.87657 -8.929687,-12.40235 -2.567594,-2.13849 83.197425,-76.708138 88.250732,-73.53258 12.87025,-4.060821 35.84559,28.384753 39.02604,25.395276 0.88194,-1.055184 -0.31994,-23.236334 1.04614,-24.55224 1.47031,-2.444734 27.00404,-1.287679 28.86793,-0.236235 1.38547,1.187567 -0.61421,47.058039 0,48.758939 1.35894,4.14453 26.23785,20.74144 26.45833,23.24553 0.70703,4.98617 -9.03552,13.60767 -10.53608,13.13467 -7.54219,-4.37932 -13.78038,-11.16605 -15.63876,-11.1503 -2.16288,-1.16016 0.31498,63.87798 -0.14174,65.9096 0.33428,3.2825 -3.62358,5.65331 -5.5244,6.14074 l -121.664592,0.23624 c -2.092411,-0.49469 -4.453681,-1.21436 -5.669642,-5.99901 z"
       id="path28"
       sodipodi:nodetypes="cccccccccccccccc" />
    <g
       id="g71"
       style="fill:#ffffff">
      <ellipse
         style="fill:#ffffff;fill-opacity:1;stroke-width:0.26763"
         id="path38"
         cx="117.73222"
         cy="169.20972"
         rx="34.878674"
         ry="29.533283" />
      <ellipse
         style="fill:#ffffff;fill-opacity:1;stroke-width:0.250139"
         id="path38-9"
         cx="91.272537"
         cy="169.18161"
         rx="30.468727"
         ry="29.533283" />
      <rect
         style="fill:#ffffff;fill-opacity:1;stroke-width:0.259205"
         id="rect66"
         width="27.094448"
         height="59.066551"
         x="91.038681"
         y="139.64832" />
    </g>
    <ellipse
       style="fill:#428bca;fill-opacity:1;fill-rule:evenodd;stroke-width:0.289612"
       id="path30"
       cx="123.61214"
       cy="169.71617"
       rx="23.386084"
       ry="22.985178" />
    <g
       aria-label="0"
       id="text75"
       style="font-style:normal;font-variant:normal;font-weight:normal;font-stretch:normal;font-size:35.2778px;line-height:1.25;font-family:'Segoe UI';-inkscape-font-specification:'Segoe UI';fill:#ffffff;fill-opacity:1;stroke:none;stroke-width:0.264583">
      <path
         d="m 87.306609,123.6174 q 0,3.10059 -0.568441,5.49493 -0.551216,2.39434 -1.619196,4.04799 -1.050755,1.63642 -2.601049,2.49769 -1.533068,0.84405 -3.496774,0.84405 -1.860353,0 -3.324519,-0.80959 -1.446941,-0.82683 -2.44602,-2.39435 -0.999078,-1.56752 -1.515843,-3.84128 -0.516765,-2.29099 -0.516765,-5.23655 0,-3.23839 0.533991,-5.71886 0.551215,-2.48047 1.60197,-4.15135 1.050755,-1.68809 2.601049,-2.53214 1.567519,-0.86128 3.582902,-0.86128 7.768695,0 7.768695,12.66074 z m -2.893882,0.27561 q 0,-10.542 -5.012617,-10.542 -5.288225,0 -5.288225,10.73148 0,10.00801 5.184872,10.00801 5.11597,0 5.11597,-10.19749 z"
         style="font-style:normal;font-variant:normal;font-weight:normal;font-stretch:normal;font-size:35.2778px;font-family:'Segoe UI';-inkscape-font-specification:'Segoe UI';fill:#ffffff;stroke-width:0.264583"
         id="path841" />
    </g>
    <g
       aria-label="Y"
       id="text75-9"
       style="font-style:normal;font-variant:normal;font-weight:normal;font-stretch:normal;font-size:35.2778px;line-height:1.25;font-family:'Segoe UI';-inkscape-font-specification:'Segoe UI';fill:#ffffff;fill-opacity:1;stroke:none;stroke-width:0.264583">
      <path
         d="m 136.38888,111.6169 -8.14766,15.57184 v 9.12951 h -2.89388 v -9.0606 l -7.94095,-15.64075 h 3.29007 l 5.52938,11.16212 q 0.10335,0.2067 0.60289,1.51584 h 0.0517 q 0.17225,-0.58567 0.65457,-1.51584 l 5.78776,-11.16212 z"
         style="font-style:normal;font-variant:normal;font-weight:normal;font-stretch:normal;font-size:35.2778px;font-family:'Segoe UI';-inkscape-font-specification:'Segoe UI';fill:#ffffff;stroke-width:0.264583"
         id="path844" />
    </g>
  </g>
</svg>
