<?xml version="1.0" encoding="UTF-8" standalone="no"?>
<svg
   xmlns:dc="http://purl.org/dc/elements/1.1/"
   xmlns:cc="http://creativecommons.org/ns#"
   xmlns:rdf="http://www.w3.org/1999/02/22-rdf-syntax-ns#"
   xmlns:svg="http://www.w3.org/2000/svg"
   xmlns="http://www.w3.org/2000/svg"
   xmlns:sodipodi="http://sodipodi.sourceforge.net/DTD/sodipodi-0.dtd"
   xmlns:inkscape="http://www.inkscape.org/namespaces/inkscape"
   width="48"
   height="48"
   viewBox="0 0 48 48"
   version="1.1"
   id="svg8"
   sodipodi:docname="switch_android.svg"
   inkscape:version="1.0.1 (3bc2e813f5, 2020-09-07)">
  <defs
     id="defs2" />
  <sodipodi:namedview
     id="base"
     pagecolor="#ffffff"
     bordercolor="#666666"
     borderopacity="1.0"
     inkscape:pageopacity="0.0"
     inkscape:pageshadow="2"
     inkscape:zoom="16"
     inkscape:cx="17.340007"
     inkscape:cy="25.28034"
     inkscape:document-units="px"
     inkscape:current-layer="g933"
     inkscape:document-rotation="0"
     showgrid="true"
     units="px"
     inkscape:snap-bbox="true"
     inkscape:snap-bbox-midpoints="true"
     inkscape:window-width="1920"
     inkscape:window-height="1017"
     inkscape:window-x="1912"
     inkscape:window-y="-8"
     inkscape:window-maximized="1">
    <inkscape:grid
       type="xygrid"
       id="grid10"
       empcolor="#003fff"
       empopacity="0.21176471"
       color="#ff3fff"
       opacity="0.1254902"
       empspacing="8" />
  </sodipodi:namedview>
  <metadata
     id="metadata5">
    <rdf:RDF>
      <cc:Work
         rdf:about="">
        <dc:format>image/svg+xml</dc:format>
        <dc:type
           rdf:resource="http://purl.org/dc/dcmitype/StillImage" />
        <dc:title></dc:title>
      </cc:Work>
    </rdf:RDF>
  </metadata>
  <g
     inkscape:groupmode="layer"
     id="g933"
     inkscape:label="Image7"
     style="display:inline">
    <path
       id="rect929"
       style="fill:#000000;fill-opacity:1;stroke:#000000;stroke-width:2;paint-order:fill markers stroke"
       d="m 12,17 c -3.8780005,0 -7,3.122 -7,7 0,3.878001 3.1219995,7 7,7 h 25 c 3.878001,0 7,-3.121999 7,-7 0,-3.878 -3.121999,-7 -7,-7 z m 23.919922,1 a 6,5.9999996 0 0 1 6.068359,5.619141 L 42,24 A 6,5.9999996 0 0 1 36.095703,30 6,5.9999996 0 0 1 30.003906,24.189453 6,5.9999996 0 0 1 35.714844,18.005859 6,5.9999996 0 0 1 35.919922,18 Z"
       />
  </g>
</svg>
