<?xml version="1.0" encoding="UTF-8" standalone="no"?>
<svg
   xmlns:dc="http://purl.org/dc/elements/1.1/"
   xmlns:cc="http://creativecommons.org/ns#"
   xmlns:rdf="http://www.w3.org/1999/02/22-rdf-syntax-ns#"
   xmlns:svg="http://www.w3.org/2000/svg"
   xmlns="http://www.w3.org/2000/svg"
   xmlns:sodipodi="http://sodipodi.sourceforge.net/DTD/sodipodi-0.dtd"
   xmlns:inkscape="http://www.inkscape.org/namespaces/inkscape"
   width="48mm"
   height="48mm"
   viewBox="0 0 48 48"
   version="1.1"
   id="svg1067"
   sodipodi:docname="switch6.svg"
   inkscape:version="1.0.1 (3bc2e813f5, 2020-09-07)">
  <defs
     id="defs1061" />
  <sodipodi:namedview
     id="base"
     pagecolor="#ffffff"
     bordercolor="#666666"
     borderopacity="1.0"
     inkscape:pageopacity="0.0"
     inkscape:pageshadow="2"
     inkscape:zoom="3.959798"
     inkscape:cx="80.892282"
     inkscape:cy="104.36999"
     inkscape:document-units="mm"
     inkscape:current-layer="layer1"
     inkscape:document-rotation="0"
     showgrid="true"
     inkscape:snap-grids="true"
     inkscape:snap-bbox="true"
     inkscape:snap-bbox-midpoints="true"
     inkscape:snap-page="false"
     showguides="true"
     units="px"
     inkscape:window-width="1540"
     inkscape:window-height="1040"
     inkscape:window-x="1946"
     inkscape:window-y="0"
     inkscape:window-maximized="0">
    <inkscape:grid
       dotted="false"
       color="#ff3fff"
       opacity="0.12941176"
       empspacing="2"
       type="xygrid"
       id="grid1632"
       spacingx="1.8520833"
       spacingy="1.8520833"
       empcolor="#003fff"
       empopacity="0.21176471" />
  </sodipodi:namedview>
  <metadata
     id="metadata1064">
    <rdf:RDF>
      <cc:Work
         rdf:about="">
        <dc:format>image/svg+xml</dc:format>
        <dc:type
           rdf:resource="http://purl.org/dc/dcmitype/StillImage" />
        <dc:title></dc:title>
      </cc:Work>
    </rdf:RDF>
  </metadata>
  <g
     inkscape:label="Calque 1"
     inkscape:groupmode="layer"
     id="layer1">
    <path
       id="rect1652"
       style="fill:#000000;fill-opacity:1;stroke:none;stroke-width:0;paint-order:fill markers stroke"
       d="M 49 56 C 29.609996 56 14 71.609999 14 91 C 14 110.39 29.609996 126 49 126 L 133 126 C 152.39 126 168 110.39 168 91 C 168 71.609999 152.39 56 133 56 L 49 56 z M 89 70 A 21 21 0 0 1 110 91 A 21 21 0 0 1 89 112 A 21 21 0 0 1 68 91 A 21 21 0 0 1 89 70 z "
       transform="scale(0.26458333)" />
  </g>
</svg>
